Coordinates
version=1
nRows=13
nColumns=40
inDegrees=yes

Units are S.I. units (second, meters, Newtons, ...)
If the header above contains a line with 'inDegrees', this indicates whether rotational values are in degrees (yes) or radians (no).

endheader
time	pelvis_tilt	pelvis_list	pelvis_rotation	pelvis_tx	pelvis_ty	pelvis_tz	hip_flexion_r	hip_adduction_r	hip_rotation_r	knee_angle_r	knee_angle_r_beta	ankle_angle_r	subtalar_angle_r	mtp_angle_r	hip_flexion_l	hip_adduction_l	hip_rotation_l	knee_angle_l	knee_angle_l_beta	ankle_angle_l	subtalar_angle_l	mtp_angle_l	lumbar_extension	lumbar_bending	lumbar_rotation	arm_flex_r	arm_add_r	arm_rot_r	elbow_flex_r	pro_sup_r	wrist_flex_r	wrist_dev_r	arm_flex_l	arm_add_l	arm_rot_l	elbow_flex_l	pro_sup_l	wrist_flex_l	wrist_dev_l
      2.40000000	     14.32990226	     -6.76558111	     -8.24560532	     -0.26622329	      1.06456569	     -1.04061968	     17.35901870	      4.09134491	      0.04046352	      5.56934764	      0.09720345	      1.56711755	      0.00000000	      0.00000000	     -9.58362765	     -0.71811618	    -15.64827895	     16.06608216	      0.28040603	     -0.27287812	      0.00000000	      0.00000000	    -12.88864695	      6.01873930	     11.44904832	     77.22348096	    -22.34315724	     47.22695621	     35.23419803	     86.53481911	      0.00000000	      0.00000000	     81.13808131	    -22.42834207	     58.91490175	     42.72894535	     79.40528154	      0.00000000	      0.00000000
      2.40500000	     14.33732569	     -6.77337662	     -8.25281355	     -0.26633609	      1.06458680	     -1.04067229	     17.40886487	      4.11358522	      0.02608885	      5.67744761	      0.09909015	      1.59854837	      0.00000000	      0.00000000	     -9.57043437	     -0.73266981	    -15.72693123	     16.09908850	      0.28098210	     -0.28702214	      0.00000000	      0.00000000	    -12.91376660	      6.00805242	     11.45303488	     77.27103467	    -22.40865769	     47.32566719	     35.30580085	     86.56594351	      0.00000000	      0.00000000	     81.19004596	    -22.45183084	     59.13939897	     42.81655570	     78.33273101	      0.00000000	      0.00000000
      2.41000000	     14.36293366	     -6.79193576	     -8.24136589	     -0.26645744	      1.06471747	     -1.04075113	     17.40807410	      4.13780910	     -0.00487041	      5.71820066	      0.09980143	      1.51847025	      0.00000000	      0.00000000	     -9.60521419	     -0.74637520	    -15.68702460	     16.08606482	      0.28075479	     -0.34095973	      0.00000000	      0.00000000	    -12.93802577	      6.00823377	     11.48380151	     77.21314044	    -22.46846439	     47.09753921	     35.32630797	     86.38967002	      0.00000000	      0.00000000	     81.21074706	    -22.31527944	     58.94120836	     42.61444895	     82.00948464	      0.00000000	      0.00000000
      2.41500000	     14.36728846	     -6.81983094	     -8.21588633	     -0.26659242	      1.06478607	     -1.04079531	     17.43388563	      4.17263698	     -0.04941924	      5.75517428	      0.10044674	      1.51790773	      0.00000000	      0.00000000	     -9.60986995	     -0.77763853	    -15.64897904	     16.05023582	      0.28012946	     -0.37477995	      0.00000000	      0.00000000	    -12.95966572	      6.03073913	     11.43519679	     77.19553998	    -22.41145562	     46.86319859	     35.30671692	     86.46714198	      0.00000000	      0.00000000	     81.21140508	    -22.34413534	     58.95473408	     42.65293644	     81.45513315	      0.00000000	      0.00000000
      2.42000000	     14.40419357	     -6.86319417	     -8.24050392	     -0.26648800	      1.06486933	     -1.04074883	     17.40777110	      4.23087374	      0.02837832	      5.79212909	      0.10109172	      1.53871746	      0.00000000	      0.00000000	     -9.68529577	     -0.81391943	    -15.74637850	     16.01727316	      0.27955415	     -0.38478963	      0.00000000	      0.00000000	    -12.98411231	      6.04782119	     11.47387904	     77.20243946	    -22.46935562	     46.94406535	     35.35063676	     86.42090074	      0.00000000	      0.00000000	     81.24059605	    -22.29347194	     59.06711972	     42.56750168	     81.84164161	      0.00000000	      0.00000000
      2.42500000	     14.42128328	     -6.84913631	     -8.25523916	     -0.26666970	      1.06490653	     -1.04077232	     17.44366069	      4.23885321	     -0.01709518	      5.81989709	      0.10157637	      1.60169466	      0.00000000	      0.00000000	     -9.68703190	     -0.80282387	    -15.81177806	     16.03217395	      0.27981422	     -0.41953516	      0.00000000	      0.00000000	    -13.02091987	      6.00663815	     11.46080777	     77.23313121	    -22.47442820	     46.94508585	     35.34215030	     86.48237869	      0.00000000	      0.00000000	     81.27565134	    -22.32245706	     59.16005603	     42.63488645	     81.33068964	      0.00000000	      0.00000000
      2.43000000	     14.42209228	     -6.88991765	     -8.21919490	     -0.26683699	      1.06497685	     -1.04083845	     17.47873765	      4.27776677	     -0.06957390	      5.87565609	      0.10254954	      1.53439019	      0.00000000	      0.00000000	     -9.67145562	     -0.85829554	    -15.78392949	     16.06312555	      0.28035443	     -0.39085713	      0.00000000	      0.00000000	    -13.03455589	      6.04013481	     11.42991271	     77.22755842	    -22.48034676	     46.86586597	     35.34360180	     86.42191553	      0.00000000	      0.00000000	     81.29250265	    -22.28963765	     59.16618323	     42.59166172	     81.83957192	      0.00000000	      0.00000000
      2.43500000	     14.37137243	     -6.92352554	     -8.14523980	     -0.26711867	      1.06487696	     -1.04095881	     17.58843762	      4.30399940	     -0.21382422	      5.92363481	      0.10338693	      1.59311479	      0.00000000	      0.00000000	     -9.55650858	     -0.93165510	    -15.71289351	     16.14721300	      0.28182203	     -0.35239840	      0.00000000	      0.00000000	    -13.00557813	      6.08424008	     11.33482687	     77.30137021	    -22.46504744	     46.96216284	     35.27591504	     86.38042648	      0.00000000	      0.00000000	     81.30588347	    -22.31039423	     59.15883597	     42.63027878	     82.03862076	      0.00000000	      0.00000000
      2.44000000	     14.47712081	     -6.94734396	     -8.13371641	     -0.26720065	      1.06513261	     -1.04099785	     17.49396556	      4.31917282	     -0.24230668	      5.90447629	      0.10305255	      1.42234662	      0.00000000	      0.00000000	     -9.68023047	     -0.94027097	    -15.66948802	     16.12574473	      0.28144734	     -0.44264375	      0.00000000	      0.00000000	    -13.13456796	      6.06663255	     11.29793941	     77.30446182	    -22.47473771	     46.92980971	     35.32840907	     86.44857179	      0.00000000	      0.00000000	     81.29677179	    -22.37562639	     59.19791665	     42.78655934	     81.50549745	      0.00000000	      0.00000000
      2.44500000	     14.43584548	     -6.93047865	     -8.12872847	     -0.26747428	      1.06509322	     -1.04102120	     17.59755095	      4.31042040	     -0.19852260	      5.93924420	      0.10365937	      1.48841675	      0.00000000	      0.00000000	     -9.60997757	     -0.94691169	    -15.74930957	     16.13448224	      0.28159984	     -0.45337468	      0.00000000	      0.00000000	    -13.10681695	      6.03891395	     11.28396278	     77.32356125	    -22.45035044	     46.85624371	     35.26752915	     86.36739389	      0.00000000	      0.00000000	     81.37102801	    -22.30490855	     59.27621113	     42.62717541	     81.88268617	      0.00000000	      0.00000000
      2.45000000	     14.44903532	     -6.95841554	     -8.11489568	     -0.26761452	      1.06513123	     -1.04105972	     17.61745778	      4.34359694	     -0.30434030	      5.94845258	      0.10382008	      1.53389532	      0.00000000	      0.00000000	     -9.62096566	     -0.98503144	    -15.76650085	     16.12998267	      0.28152131	     -0.48332489	      0.00000000	      0.00000000	    -13.13941883	      6.05478340	     11.22569097	     77.36182981	    -22.41787494	     46.89893484	     35.26082145	     86.35524290	      0.00000000	      0.00000000	     81.34940106	    -22.36697240	     59.18336632	     42.68237236	     82.14531564	      0.00000000	      0.00000000
      2.45500000	     14.40161643	     -7.00690516	     -8.03858642	     -0.26789569	      1.06505166	     -1.04112959	     17.70923156	      4.38345357	     -0.37583607	      5.95205146	      0.10388290	      1.48565955	      0.00000000	      0.00000000	     -9.51784615	     -1.08818522	    -15.72701973	     16.21422113	      0.28299154	     -0.49255153	      0.00000000	      0.00000000	    -13.10966663	      6.09057387	     11.17930018	     77.34964034	    -22.47184760	     46.78974598	     35.30510563	     86.39509169	      0.00000000	      0.00000000	     81.44447096	    -22.28480747	     59.40213873	     42.59351984	     81.57933552	      0.00000000	      0.00000000
      2.46000000	     14.44174662	     -6.97276357	     -8.04983826	     -0.26807570	      1.06507880	     -1.04107698	     17.75131660	      4.35326758	     -0.34532785	      6.05964331	      0.10576073	      1.64833548	      0.00000000	      0.00000000	     -9.55153340	     -1.07120462	    -15.82894842	     16.21003678	      0.28291851	     -0.57393123	      0.00000000	      0.00000000	    -13.18470658	      6.02881121	     11.12286596	     77.53945639	    -22.46832789	     47.34330320	     35.26996622	     86.40789831	      0.00000000	      0.00000000	     81.52554937	    -22.49485488	     59.85579923	     42.94831513	     77.70565399	      0.00000000	      0.00000000
